<svg id="logo" role="img" aria-labelledby="pfsense-logo" x="0px" y="0px" viewBox="0 0 670.8 100.2">
        <title id="pfsense-logo-svg">pfSense Logo</title>
<g clip-path="url(#clip0_54948_25173)">
<path d="M151 127.5C164.42 127.5 175.3 116.621 175.3 103.2C175.3 89.7795 164.42 78.9 151 78.9C137.579 78.9 126.7 89.7795 126.7 103.2C126.7 116.621 137.579 127.5 151 127.5Z" fill="white"/>
<path d="M0.899902 61.0001V5.00007C0.899902 3.80007 1.3999 2.90007 2.1999 2.00007C2.9999 1.20007 4.0999 0.700073 5.1999 0.700073H13.5999C14.7999 0.700073 15.8999 1.20007 16.6999 2.00007C17.4999 2.80007 17.8999 3.90007 17.8999 5.00007V60.9001C17.8999 62.1001 17.3999 63.0001 16.5999 63.9001C15.7999 64.8001 14.6999 65.1001 13.5999 65.1001H5.1999C3.9999 65.1001 3.0999 64.7001 2.1999 63.9001C1.2999 63.2001 0.899902 62.2001 0.899902 61.0001Z" fill="#525355"/>
<path d="M30.7 60.9001V5.00007C30.7 3.80007 31.1 2.90007 31.9 2.00007C32.7 1.20007 33.7 0.700073 34.9 0.700073H48C49.1 0.700073 50.0999 1.20007 51.2999 2.00007C52.5 2.80007 53.3999 3.90007 54.0999 5.00007L81.3 46.8001V4.90007C81.3 3.70007 81.7 2.80007 82.5 1.90007C83.2999 1.10007 84.2999 0.700073 85.5 0.700073H93.1999C94.3999 0.700073 95.2999 1.10007 96.2 1.90007C97 2.70007 97.3999 3.80007 97.3999 5.00007V60.9001C97.3999 62.1001 97 63.0001 96.2 63.9001C95.3999 64.7001 94.3999 65.1001 93.1999 65.1001H78.4C77.2 65.1001 76 64.7001 74.8 63.9001C73.6 63.1001 72.7 62.1001 71.8 60.9001L47.0999 22.5001V61.0001C47.0999 62.2001 46.7 63.1001 45.9 64.0001C45.1 64.8001 44.1 65.2001 42.9 65.2001H35.0999C33.8999 65.2001 32.9999 64.8001 32.0999 64.0001C31.1999 63.2001 30.7 62.2001 30.7 60.9001Z" fill="#525355"/>
<path d="M205.3 61.0001V5.00007C205.3 3.80007 205.8 2.90007 206.6 2.00007C207.4 1.10007 208.5 0.700073 209.6 0.700073H218C219.2 0.700073 220.3 1.20007 221.1 2.00007C221.9 2.80007 222.3 3.90007 222.3 5.00007V60.9001C222.3 62.1001 221.8 63.0001 221 63.9001C220.2 64.8001 219.1 65.1001 218 65.1001H209.6C208.4 65.1001 207.5 64.7001 206.6 63.9001C205.7 63.2001 205.3 62.2001 205.3 61.0001Z" fill="#525355"/>
<path d="M235.2 60.9001V5.00007C235.2 3.80007 235.6 2.90007 236.4 2.00007C237.2 1.20007 238.2 0.700073 239.4 0.700073H252.6C253.7 0.700073 254.7 1.20007 255.9 2.00007C257.1 2.80007 258 3.90007 258.7 5.00007L285.9 46.8001V4.90007C285.9 3.70007 286.3 2.80007 287.1 1.90007C287.9 1.00007 288.9 0.700073 290.1 0.700073H297.8C299 0.700073 299.9 1.10007 300.8 1.90007C301.7 2.70007 302 3.80007 302 5.00007V60.9001C302 62.1001 301.6 63.0001 300.8 63.9001C300 64.8001 299 65.1001 297.8 65.1001H282.8C281.6 65.1001 280.4 64.7001 279.2 63.9001C278 63.1001 277.1 62.1001 276.2 60.9001L251.4 22.3001V60.9001C251.4 62.1001 251 63.0001 250.2 63.9001C249.4 64.7001 248.4 65.1001 247.2 65.1001H239.4C238.2 65.1001 237.3 64.7001 236.4 63.9001C235.5 63.2001 235.2 62.2001 235.2 60.9001Z" fill="#525355"/>
<path d="M311.2 48.7C311.2 46.9 311.7 45.7001 312.7 44.9001C313.8 44.2001 314.7 43.7 315.8 43.7H321.1C323.8 43.7 325.8 45.1 327.3 48.1C328.8 51.1 331.8 52.5 336.8 52.5L352.6 52.9001C357.8 52.9001 360.4 51.1 360.4 47.7C360.4 45.1 357.2 43.1 350.8 41.5C348 40.8 344.7 40.2001 341.3 39.5C337.9 38.8 334.4 38 331 36.9001C327.6 35.8001 324.4 34.6 321.5 33.3C318.7 31.9 316.3 30 314.5 27.6C312.7 25.2 311.8 22.4 311.8 19.1C311.8 13 313.9 8.40005 318.2 5.20005C322.5 1.90005 329.8 0.300049 340.3 0.300049L351.7 0.50005C357.9 0.50005 363.3 2.00005 368.3 5.20005C373.3 8.30005 375.7 12.3 375.7 17.1C375.7 18.9 375.2 20.1001 374.2 20.9001C373.1 21.6001 372.2 22.1 371.2 22.1H365.9C363.2 22.1 361.2 20.7001 359.7 17.7001C358.2 14.7001 355.2 13.3 350.2 13.3L336.7 13.1C331.5 13.1 328.9 14.9 328.9 18.3C328.9 20.2 330.6 21.7001 333.9 22.9001C337.2 24.1001 341.3 25.2001 346 26C350.7 26.9 355.5 28 360.2 29.3C364.9 30.6 369 32.7 372.4 35.6C375.7 38.6 377.4 42.2 377.4 46.6C377.4 52.7 375.3 57.3 371 60.5C366.7 63.8 359.4 65.4001 348.9 65.4001L335.3 65.2C329.1 65.2 323.7 63.7001 318.7 60.5C313.7 57.3 311.2 53.4 311.2 48.7Z" fill="#525355"/>
<path d="M386.6 60.9001V4.90007C386.6 3.70007 387.1 2.80007 387.9 1.90007C388.7 1.10007 389.8 0.700073 390.9 0.700073H442.6C443.8 0.700073 444.7 1.20007 445.6 2.00007C446.4 2.80007 446.8 3.90007 446.8 5.00007V9.30007C446.8 10.5001 446.4 11.4001 445.6 12.3001C444.8 13.1001 443.8 13.5001 442.6 13.5001H403.4V26.6001H437.1C438.3 26.6001 439.2 27.0001 440.1 27.8001C440.9 28.6001 441.3 29.6001 441.3 30.8001V35.1001C441.3 36.3001 440.9 37.2001 440.1 38.1001C439.3 38.9001 438.3 39.3001 437.1 39.3001H403.4V52.6001H442.4C443.6 52.6001 444.5 53.0001 445.4 53.8001C446.2 54.6001 446.6 55.6001 446.6 56.8001V61.1001C446.6 62.3001 446.1 63.2001 445.3 64.1001C444.5 64.9001 443.4 65.3001 442.3 65.3001H390.7C389.5 65.3001 388.6 64.9001 387.7 64.1001C386.9 63.2001 386.6 62.1001 386.6 60.9001Z" fill="#525355"/>
<path d="M455 60.9001V5.00007C455 3.80007 455.4 2.90007 456.2 2.00007C457 1.20007 458 0.700073 459.2 0.700073H472.4C473.5 0.700073 474.5 1.20007 475.7 2.00007C476.9 2.80007 477.8 3.90007 478.5 5.00007L505.7 46.8001V4.90007C505.7 3.70007 506.1 2.80007 506.9 1.90007C507.7 1.00007 508.7 0.700073 509.9 0.700073H517.6C518.8 0.700073 519.7 1.10007 520.6 1.90007C521.5 2.70007 521.8 3.80007 521.8 5.00007V60.9001C521.8 62.1001 521.4 63.0001 520.6 63.9001C519.8 64.8001 518.8 65.1001 517.6 65.1001H502.6C501.4 65.1001 500.2 64.7001 499 63.9001C497.8 63.1001 496.9 62.1001 496 60.9001L471.2 22.3001V60.9001C471.2 62.1001 470.8 63.0001 470 63.9001C469.2 64.8001 468.2 65.1001 467 65.1001H459.2C458 65.1001 457.1 64.7001 456.2 63.9001C455.5 63.2001 455 62.2001 455 60.9001Z" fill="#525355"/>
<path d="M531.2 48.7C531.2 46.9 531.7 45.7 532.7 44.9C533.8 44.2 534.7 43.7 535.8 43.7H541.1C543.8 43.7 545.8 45.1 547.3 48.1C548.8 51.1 551.8 52.5 556.8 52.5L572.6 53C577.8 53 580.4 51.2 580.4 47.8C580.4 45.2 577.2 43.2 570.8 41.6C568 40.9 564.7 40.3 561.3 39.6C557.9 38.9 554.4 38.1 551 37C547.6 35.9 544.4 34.7 541.5 33.4C538.7 32 536.3 30.1 534.5 27.7C532.7 25.3 531.8 22.5 531.8 19.2C531.8 13.1 533.9 8.50002 538.2 5.30002C542.5 2.00002 549.8 0.400024 560.3 0.400024L571.7 0.600025C577.9 0.600025 583.3 2.10002 588.3 5.30002C593.3 8.40002 595.7 12.4 595.7 17.2C595.7 19 595.2 20.2 594.2 21C593.1 21.7 592.2 22.2 591.2 22.2H585.7C583 22.2 581 20.8 579.5 17.8C578 14.8 575 13.4 570 13.4L556.5 13.2C551.3 13.2 548.7 15 548.7 18.4C548.7 20.3 550.4 21.8 553.7 23C557 24.2 561.1 25.3 565.8 26.1C570.5 27 575.3 28.1 580 29.4C584.7 30.7 588.8 32.8 592.2 35.7C595.5 38.7 597.2 42.3 597.2 46.7C597.2 52.8 595.1 57.4 590.8 60.6C586.5 63.9 579.2 65.5 568.7 65.5L555.1 65.3C548.9 65.3 543.5 63.8 538.5 60.6C533.6 57.3 531.2 53.4 531.2 48.7Z" fill="#525355"/>
<path d="M606.5 60.9001V4.90007C606.5 3.70007 607 2.80007 607.8 1.90007C608.6 1.10007 609.7 0.700073 610.8 0.700073H662.5C663.7 0.700073 664.6 1.20007 665.5 2.00007C666.4 2.80007 666.7 3.90007 666.7 5.00007V9.30007C666.7 10.5001 666.3 11.4001 665.5 12.3001C664.7 13.2001 663.7 13.5001 662.5 13.5001H623.3V26.6001H657C658.2 26.6001 659.1 27.0001 660 27.8001C660.8 28.6001 661.2 29.6001 661.2 30.8001V35.1001C661.2 36.3001 660.8 37.2001 660 38.1001C659.2 38.9001 658.2 39.3001 657 39.3001H623.3V52.6001H662.3C663.5 52.6001 664.4 53.0001 665.3 53.8001C666.1 54.6001 666.5 55.6001 666.5 56.8001V61.1001C666.5 62.3001 666 63.2001 665.2 64.1001C664.4 64.9001 663.3 65.3001 662.2 65.3001H610.6C609.4 65.3001 608.5 64.9001 607.6 64.1001C606.9 63.2001 606.5 62.1001 606.5 60.9001Z" fill="#525355"/>
<path d="M151.9 22.8001L135.1 0.600098H103.2L151.9 65.4001L167.9 43.8001L151.9 22.7001V22.8001Z" fill="#45C269"/>
<path d="M168.3 0.600098L151.9 22.7001L167.9 43.8001L200.4 0.600098H168.3Z" fill="#20A651"/>
<path opacity="0.5" d="M154.5 19.3L151.9 22.7001L167.9 43.8001L171 39.8001L154.5 19.3Z" fill="#006D30"/>
<path d="M151.9 86.8C148.9 86.8 146.6 89.2 146.6 92.1V97.3H157.2H157.3V92.1C157.2 89.1 154.8 86.8 151.9 86.8Z" fill="#45C269"/>
<path d="M151.9 65.5C132.7 65.5 117.1 81 117.1 100.3C117.1 119.6 132.6 135.1 151.9 135.1C171.2 135.1 186.7 119.6 186.7 100.3C186.7 81 171.1 65.5 151.9 65.5ZM166.9 114.9C166.9 117 165.1 118.8 163 118.8H140.7C138.6 118.8 136.8 117 136.8 114.9V101.5C136.8 99.4 138.6 97.6 140.7 97.6H141.3V92.4C141.3 86.5 146 81.7 151.9 81.7C157.8 81.7 162.6 86.6 162.6 92.4V97.6H163.2C165.5 97.6 167.2 99.4 167.1 101.5L166.9 114.9Z" fill="#45C269"/>
<path d="M148.1 104.5C148 104.4 148 104.3 148 104.1C148 103.9 148.1 103.7 148.4 103.6L150.7 101.7C151.1 101.5 151.5 101.2 152 101.2H153.3C153.5 101.2 153.8 101.3 153.9 101.4C154 101.5 154.1 101.8 154.1 102V113.4C154.1 113.6 154 113.9 153.9 114C153.7 114.1 153.5 114.2 153.3 114.2H151.6C151.4 114.2 151.1 114.1 151 114C150.9 113.9 150.8 113.6 150.8 113.4V104.5L149.7 105.3C149.6 105.4 149.5 105.4 149.2 105.4C149.1 105.4 149 105.3 148.8 105.2L148.1 104.5Z" fill="#45C269"/>
</g>
<defs>
<clipPath id="clip0_54948_25173">
<rect width="667" height="136" fill="white"/>
</clipPath>
</defs>
</svg>
